<mxfile host="app.diagrams.net" modified="2021-04-27T06:51:24.403Z" agent="5.0 (X11; Linux x86_64) AppleWebKit/537.36 (KHTML, like Gecko) Chrome/90.0.4430.85 Safari/537.36" etag="mKyhCUqla0zNHumivHPG" version="14.6.6" type="github">
  <diagram id="7VQK2rr4D-DGZCO5EgU3" name="Page-1">
    <mxGraphModel dx="980" dy="501" grid="1" gridSize="10" guides="1" tooltips="1" connect="1" arrows="1" fold="1" page="1" pageScale="1" pageWidth="827" pageHeight="1169" math="0" shadow="0">
      <root>
        <mxCell id="0" />
        <mxCell id="1" parent="0" />
        <mxCell id="PfRyEoEBKBv2VuzRVFPo-27" value="" style="rounded=0;whiteSpace=wrap;html=1;gradientColor=#ffffff;" vertex="1" parent="1">
          <mxGeometry x="400" y="430" width="400" height="90" as="geometry" />
        </mxCell>
        <mxCell id="PfRyEoEBKBv2VuzRVFPo-26" value="" style="rounded=0;whiteSpace=wrap;html=1;gradientColor=#ffffff;" vertex="1" parent="1">
          <mxGeometry x="60" y="430" width="330" height="90" as="geometry" />
        </mxCell>
        <mxCell id="PfRyEoEBKBv2VuzRVFPo-1" value="Application" style="rounded=1;whiteSpace=wrap;html=1;fillColor=#dae8fc;strokeColor=#6c8ebf;" vertex="1" parent="1">
          <mxGeometry x="163" y="120" width="120" height="40" as="geometry" />
        </mxCell>
        <mxCell id="PfRyEoEBKBv2VuzRVFPo-2" value="Internal Request" style="rounded=1;whiteSpace=wrap;html=1;fillColor=#f8cecc;strokeColor=#b85450;" vertex="1" parent="1">
          <mxGeometry x="650" y="120" width="120" height="40" as="geometry" />
        </mxCell>
        <mxCell id="PfRyEoEBKBv2VuzRVFPo-3" value="Indexing Request" style="rounded=1;whiteSpace=wrap;html=1;fillColor=#ffe6cc;strokeColor=#d79b00;" vertex="1" parent="1">
          <mxGeometry x="354" y="120" width="120" height="40" as="geometry" />
        </mxCell>
        <mxCell id="PfRyEoEBKBv2VuzRVFPo-4" value="ES CN" style="rounded=1;whiteSpace=wrap;html=1;fillColor=#dae8fc;strokeColor=#6c8ebf;" vertex="1" parent="1">
          <mxGeometry x="23" y="280" width="120" height="40" as="geometry" />
        </mxCell>
        <mxCell id="PfRyEoEBKBv2VuzRVFPo-5" value="&lt;span&gt;ES CN&lt;/span&gt;" style="rounded=1;whiteSpace=wrap;html=1;fillColor=#dae8fc;strokeColor=#6c8ebf;" vertex="1" parent="1">
          <mxGeometry x="163" y="280" width="120" height="40" as="geometry" />
        </mxCell>
        <mxCell id="PfRyEoEBKBv2VuzRVFPo-6" value="&lt;span&gt;ES CN&lt;/span&gt;" style="rounded=1;whiteSpace=wrap;html=1;fillColor=#dae8fc;strokeColor=#6c8ebf;" vertex="1" parent="1">
          <mxGeometry x="297" y="280" width="120" height="40" as="geometry" />
        </mxCell>
        <mxCell id="PfRyEoEBKBv2VuzRVFPo-7" value="&lt;span&gt;ES CN&lt;/span&gt;" style="rounded=1;whiteSpace=wrap;html=1;fillColor=#ffe6cc;strokeColor=#d79b00;" vertex="1" parent="1">
          <mxGeometry x="500" y="280" width="120" height="40" as="geometry" />
        </mxCell>
        <mxCell id="PfRyEoEBKBv2VuzRVFPo-8" value="&lt;span&gt;ES CN&lt;/span&gt;" style="rounded=1;whiteSpace=wrap;html=1;fillColor=#f8cecc;strokeColor=#b85450;" vertex="1" parent="1">
          <mxGeometry x="650" y="280" width="120" height="40" as="geometry" />
        </mxCell>
        <mxCell id="PfRyEoEBKBv2VuzRVFPo-11" value="" style="endArrow=classic;html=1;exitX=0.5;exitY=1;exitDx=0;exitDy=0;exitPerimeter=0;entryX=0.5;entryY=0;entryDx=0;entryDy=0;edgeStyle=orthogonalEdgeStyle;fillColor=#dae8fc;strokeColor=#6c8ebf;" edge="1" parent="1" target="PfRyEoEBKBv2VuzRVFPo-4">
          <mxGeometry width="50" height="50" relative="1" as="geometry">
            <mxPoint x="223" y="252" as="sourcePoint" />
            <mxPoint x="-147" y="250" as="targetPoint" />
          </mxGeometry>
        </mxCell>
        <mxCell id="PfRyEoEBKBv2VuzRVFPo-12" value="" style="endArrow=classic;html=1;exitX=0.5;exitY=1;exitDx=0;exitDy=0;exitPerimeter=0;entryX=0.5;entryY=0;entryDx=0;entryDy=0;edgeStyle=orthogonalEdgeStyle;fillColor=#dae8fc;strokeColor=#6c8ebf;" edge="1" parent="1" target="PfRyEoEBKBv2VuzRVFPo-6">
          <mxGeometry width="50" height="50" relative="1" as="geometry">
            <mxPoint x="223" y="252" as="sourcePoint" />
            <mxPoint x="360" y="210" as="targetPoint" />
          </mxGeometry>
        </mxCell>
        <mxCell id="PfRyEoEBKBv2VuzRVFPo-13" value="" style="endArrow=classic;html=1;entryX=0.5;entryY=0;entryDx=0;entryDy=0;exitX=0.5;exitY=1;exitDx=0;exitDy=0;exitPerimeter=0;fillColor=#dae8fc;strokeColor=#6c8ebf;" edge="1" parent="1" target="PfRyEoEBKBv2VuzRVFPo-5">
          <mxGeometry width="50" height="50" relative="1" as="geometry">
            <mxPoint x="223" y="252" as="sourcePoint" />
            <mxPoint x="170" y="190" as="targetPoint" />
          </mxGeometry>
        </mxCell>
        <mxCell id="PfRyEoEBKBv2VuzRVFPo-14" value="" style="endArrow=classic;html=1;exitX=0.5;exitY=1;exitDx=0;exitDy=0;fillColor=#dae8fc;strokeColor=#6c8ebf;" edge="1" parent="1" source="PfRyEoEBKBv2VuzRVFPo-1">
          <mxGeometry width="50" height="50" relative="1" as="geometry">
            <mxPoint x="-110" y="240" as="sourcePoint" />
            <mxPoint x="223" y="190" as="targetPoint" />
          </mxGeometry>
        </mxCell>
        <mxCell id="PfRyEoEBKBv2VuzRVFPo-15" value="" style="endArrow=classic;html=1;exitX=0.5;exitY=1;exitDx=0;exitDy=0;entryX=0.5;entryY=0;entryDx=0;entryDy=0;edgeStyle=orthogonalEdgeStyle;fillColor=#ffe6cc;strokeColor=#d79b00;" edge="1" parent="1" source="PfRyEoEBKBv2VuzRVFPo-3" target="PfRyEoEBKBv2VuzRVFPo-7">
          <mxGeometry width="50" height="50" relative="1" as="geometry">
            <mxPoint x="470" y="620" as="sourcePoint" />
            <mxPoint x="520" y="570" as="targetPoint" />
          </mxGeometry>
        </mxCell>
        <mxCell id="PfRyEoEBKBv2VuzRVFPo-16" value="" style="endArrow=classic;html=1;exitX=0.5;exitY=1;exitDx=0;exitDy=0;fillColor=#f8cecc;strokeColor=#b85450;" edge="1" parent="1" source="PfRyEoEBKBv2VuzRVFPo-2" target="PfRyEoEBKBv2VuzRVFPo-8">
          <mxGeometry width="50" height="50" relative="1" as="geometry">
            <mxPoint x="540" y="610" as="sourcePoint" />
            <mxPoint x="590" y="560" as="targetPoint" />
          </mxGeometry>
        </mxCell>
        <mxCell id="PfRyEoEBKBv2VuzRVFPo-17" value="" style="shape=cylinder3;whiteSpace=wrap;html=1;boundedLbl=1;backgroundOutline=1;size=15;fillColor=#60a917;strokeColor=#2D7600;fontColor=#ffffff;gradientColor=#ffffff;" vertex="1" parent="1">
          <mxGeometry x="83" y="440" width="60" height="60" as="geometry" />
        </mxCell>
        <mxCell id="PfRyEoEBKBv2VuzRVFPo-19" value="" style="shape=cylinder3;whiteSpace=wrap;html=1;boundedLbl=1;backgroundOutline=1;size=15;fillColor=#60a917;strokeColor=#2D7600;fontColor=#ffffff;gradientColor=#ffffff;" vertex="1" parent="1">
          <mxGeometry x="163" y="440" width="60" height="60" as="geometry" />
        </mxCell>
        <mxCell id="PfRyEoEBKBv2VuzRVFPo-20" value="" style="shape=cylinder3;whiteSpace=wrap;html=1;boundedLbl=1;backgroundOutline=1;size=15;fillColor=#60a917;strokeColor=#2D7600;fontColor=#ffffff;gradientColor=#ffffff;" vertex="1" parent="1">
          <mxGeometry x="237" y="440" width="60" height="60" as="geometry" />
        </mxCell>
        <mxCell id="PfRyEoEBKBv2VuzRVFPo-21" value="" style="shape=cylinder3;whiteSpace=wrap;html=1;boundedLbl=1;backgroundOutline=1;size=15;fillColor=#60a917;strokeColor=#2D7600;fontColor=#ffffff;gradientColor=#ffffff;" vertex="1" parent="1">
          <mxGeometry x="310" y="440" width="60" height="60" as="geometry" />
        </mxCell>
        <mxCell id="PfRyEoEBKBv2VuzRVFPo-22" value="" style="shape=cylinder3;whiteSpace=wrap;html=1;boundedLbl=1;backgroundOutline=1;size=15;fillColor=#d80073;strokeColor=#A50040;fontColor=#ffffff;gradientColor=#ffffff;" vertex="1" parent="1">
          <mxGeometry x="417" y="440" width="60" height="60" as="geometry" />
        </mxCell>
        <mxCell id="PfRyEoEBKBv2VuzRVFPo-23" value="" style="shape=cylinder3;whiteSpace=wrap;html=1;boundedLbl=1;backgroundOutline=1;size=15;fillColor=#d80073;strokeColor=#A50040;fontColor=#ffffff;gradientColor=#ffffff;" vertex="1" parent="1">
          <mxGeometry x="490" y="440" width="60" height="60" as="geometry" />
        </mxCell>
        <mxCell id="PfRyEoEBKBv2VuzRVFPo-24" value="" style="shape=cylinder3;whiteSpace=wrap;html=1;boundedLbl=1;backgroundOutline=1;size=15;fillColor=#0050ef;strokeColor=#001DBC;fontColor=#ffffff;gradientColor=#ffffff;" vertex="1" parent="1">
          <mxGeometry x="570" y="440" width="60" height="60" as="geometry" />
        </mxCell>
        <mxCell id="PfRyEoEBKBv2VuzRVFPo-28" value="" style="endArrow=classic;html=1;exitX=0.5;exitY=1;exitDx=0;exitDy=0;entryX=0.5;entryY=0;entryDx=0;entryDy=0;edgeStyle=orthogonalEdgeStyle;" edge="1" parent="1" source="PfRyEoEBKBv2VuzRVFPo-4" target="PfRyEoEBKBv2VuzRVFPo-26">
          <mxGeometry width="50" height="50" relative="1" as="geometry">
            <mxPoint x="-210" y="480" as="sourcePoint" />
            <mxPoint x="-160" y="430" as="targetPoint" />
          </mxGeometry>
        </mxCell>
        <mxCell id="PfRyEoEBKBv2VuzRVFPo-29" value="" style="endArrow=classic;html=1;exitX=0.5;exitY=1;exitDx=0;exitDy=0;entryX=0.5;entryY=0;entryDx=0;entryDy=0;" edge="1" parent="1" source="PfRyEoEBKBv2VuzRVFPo-5" target="PfRyEoEBKBv2VuzRVFPo-26">
          <mxGeometry width="50" height="50" relative="1" as="geometry">
            <mxPoint x="260" y="410" as="sourcePoint" />
            <mxPoint x="310" y="360" as="targetPoint" />
          </mxGeometry>
        </mxCell>
        <mxCell id="PfRyEoEBKBv2VuzRVFPo-30" value="" style="endArrow=classic;html=1;exitX=0.5;exitY=1;exitDx=0;exitDy=0;entryX=0.5;entryY=0;entryDx=0;entryDy=0;edgeStyle=orthogonalEdgeStyle;" edge="1" parent="1" source="PfRyEoEBKBv2VuzRVFPo-6" target="PfRyEoEBKBv2VuzRVFPo-26">
          <mxGeometry width="50" height="50" relative="1" as="geometry">
            <mxPoint x="370" y="410" as="sourcePoint" />
            <mxPoint x="420" y="360" as="targetPoint" />
          </mxGeometry>
        </mxCell>
        <mxCell id="PfRyEoEBKBv2VuzRVFPo-31" value="" style="endArrow=classic;html=1;exitX=0.5;exitY=1;exitDx=0;exitDy=0;entryX=0.5;entryY=0;entryDx=0;entryDy=0;edgeStyle=orthogonalEdgeStyle;" edge="1" parent="1" source="PfRyEoEBKBv2VuzRVFPo-7" target="PfRyEoEBKBv2VuzRVFPo-26">
          <mxGeometry width="50" height="50" relative="1" as="geometry">
            <mxPoint x="460" y="710" as="sourcePoint" />
            <mxPoint x="510" y="660" as="targetPoint" />
          </mxGeometry>
        </mxCell>
        <mxCell id="PfRyEoEBKBv2VuzRVFPo-32" value="" style="endArrow=classic;html=1;" edge="1" parent="1">
          <mxGeometry width="50" height="50" relative="1" as="geometry">
            <mxPoint x="560" y="320" as="sourcePoint" />
            <mxPoint x="562" y="429" as="targetPoint" />
          </mxGeometry>
        </mxCell>
        <mxCell id="PfRyEoEBKBv2VuzRVFPo-35" value="" style="endArrow=classic;html=1;exitX=0.5;exitY=1;exitDx=0;exitDy=0;edgeStyle=orthogonalEdgeStyle;" edge="1" parent="1" source="PfRyEoEBKBv2VuzRVFPo-8">
          <mxGeometry width="50" height="50" relative="1" as="geometry">
            <mxPoint x="980" y="350" as="sourcePoint" />
            <mxPoint x="225" y="428" as="targetPoint" />
          </mxGeometry>
        </mxCell>
        <mxCell id="PfRyEoEBKBv2VuzRVFPo-36" value="" style="outlineConnect=0;fontColor=#232F3E;gradientColor=none;fillColor=#5A30B5;strokeColor=none;dashed=0;verticalLabelPosition=bottom;verticalAlign=top;align=center;html=1;fontSize=12;fontStyle=0;aspect=fixed;pointerEvents=1;shape=mxgraph.aws4.application_load_balancer;" vertex="1" parent="1">
          <mxGeometry x="193" y="190" width="60" height="60" as="geometry" />
        </mxCell>
        <mxCell id="PfRyEoEBKBv2VuzRVFPo-37" value="Data Node For inernal Use" style="text;html=1;strokeColor=none;fillColor=none;align=center;verticalAlign=middle;whiteSpace=wrap;rounded=0;" vertex="1" parent="1">
          <mxGeometry x="680" y="440" width="110" height="20" as="geometry" />
        </mxCell>
        <mxCell id="PfRyEoEBKBv2VuzRVFPo-38" value="Public Data Node" style="text;html=1;strokeColor=none;fillColor=none;align=center;verticalAlign=middle;whiteSpace=wrap;rounded=0;" vertex="1" parent="1">
          <mxGeometry x="163" y="530" width="127" height="20" as="geometry" />
        </mxCell>
      </root>
    </mxGraphModel>
  </diagram>
</mxfile>
